<?xml version="1.0" encoding="UTF-8" standalone="no"?>
<svg width="190px" height="148px" viewBox="0 0 190 148" version="1.1" xmlns="http://www.w3.org/2000/svg" xmlns:xlink="http://www.w3.org/1999/xlink" xmlns:sketch="http://www.bohemiancoding.com/sketch/ns">
    <!-- Generator: Sketch 3.4.4 (17249) - http://www.bohemiancoding.com/sketch -->
    <title>kiwi-logo</title>
    <desc>Created with Sketch.</desc>
    <defs></defs>
    <g id="Page-1" stroke="none" stroke-width="1" fill="none" fill-rule="evenodd" sketch:type="MSPage">
        <g id="Kiwi" sketch:type="MSLayerGroup" transform="translate(1.000000, 1.000000)" stroke="#8B572A" stroke-width="0.3">
            <path d="M51,94.7454547 C50.8661096,94.7340283 50.7323572,94.7222238 50.5987443,94.7100425 C50.8561702,94.8928973 50.9999999,95.0000001 50.9999999,95.0000001 C50.9999999,95.0000001 50.5942624,96.8844402 50.1482834,99.1121253 L52,113 L53,117 L55,118 L62,119 L64,120 L67,120 L73,121 L78,126 L80,130 L73,129 L68,129 L72,131 L76,135 L78,138 L80,143 L73,143 L66,141 L60,138 L55,138 L55,146 L53,145 L50,143 L46,139 L42,134 C42,134 38.4281818,122.391591 38.0350155,121.1138 C34.328956,118.612979 30.5010035,111.274431 30,105 C29.9375366,104.217725 29,97.8150509 29,96.9999999 C29,95.7124483 22.5042841,87.2896622 21.2123061,84.6944251 C8.27450071,76.1702061 0,63.1234058 0,48.5 C0,32.5975959 8.07359032,17.3849568 23,9 C32.1786703,3.84385354 45.0130388,0 57,0 C79.6662557,0 99.7608971,11.8297557 109.236434,28.0401439 C110.515689,28.7842323 115.370386,36.5185401 120,42.9999999 C122.966018,47.1524254 125.60338,49.9395675 127,50 C128.252577,50.0541997 132.666353,51.0893788 133,51 C134.759588,50.5286342 136.603334,51 138.5,51 C150.926407,51 161,61.745166 161,75 C161,76.1362788 160.92597,77.2541143 160.782775,78.3483183 L161,79 L162,83 L163,85 L164,87 L166,88 L168,89 L171,91 L177,94 L172,94 L171,93 L171,95 L172,96 L173,99 L174,101 L171,101 C171,101 171.666667,102.333333 172,103 L169,103 L170,105 L169,105 L167.00537,105 C173.152302,111.59566 180.656472,120.547789 185,129 C185.4738,129.921982 187.681537,131.574207 188.077709,132.939287 C189.079541,136.391281 188,140 188,140 C188,140 185.348912,139.598195 183.077709,137.939287 C181.774151,136.987157 180.807174,135.033135 180,134 C177.786478,131.166821 174.108743,128.773835 172,126.999999 C161.524576,118.188266 152.681468,107.945477 148.928398,103.392597 L150,105 L148,105 L147,103 L144,103 L143,104 L142,104 L140,103 L130,104 L133,102 L132,99 L127,98 L125.51191,96.51191 C122.3625,95.5013669 119.544189,94.2726087 118,93.0000012 C117.650711,92.7121423 117.628119,89.7285332 116,89.0000012 C115.183798,88.6347761 114.101861,88.6249203 113.080907,88.7193897 C103.226144,95.9233508 83.0895054,95.5454571 67,95.1682019 L67,96 L68,99 L71,99 L74,99 L79,99 L84,99 L89,100 L93,102 L94,104 L95,108 L90,108 L90,109 L94,111 L97,114 L99,117 L82,118 L83,124 L77,123 L72,119 L69,116 L65,116 L63,115 L63,111 L61,111 L60,110 L59,108 L57,107 L57,105 L55,102 L53,100 L51,99 L51,98 L51,97 L51,94.7454547 Z" id="Body" fill="#FFF8F1" sketch:type="MSShapeGroup"></path>
            <g id="Eye" transform="translate(145.000000, 86.000000)" sketch:type="MSShapeGroup">
                <ellipse id="Oval-6" fill="#FFFFFF" cx="4.953125" cy="5.046875" rx="4.953125" ry="4.953125"></ellipse>
                <ellipse id="Oval-6" fill="#FFF7F1" cx="4.98402685" cy="5.20138425" rx="2.00862021" ry="2.00862021"></ellipse>
            </g>
        </g>
    </g>
</svg>